<svg id="Multicolor" xmlns="http://www.w3.org/2000/svg" viewBox="0 0 100 112"><defs><style>.cls-1{fill:#e8f4fa;}.cls-2{fill:#fff;}.cls-3{fill:none;stroke:#191816;stroke-linecap:round;stroke-linejoin:round;}.cls-4{fill:#ffe500;}.cls-5{fill:#fff48c;}.cls-6{fill:#191816;opacity:0.15;}</style></defs><title>01- sunny</title><g id="Background"><g id="New_Symbol_25" data-name="New Symbol 25"><path class="cls-1" d="M89.92,56.17a40,40,0,1,0-76.44,16.5H86.35A39.77,39.77,0,0,0,89.92,56.17Z"/><path class="cls-2" d="M13.48,72.67a40,40,0,0,0,72.87,0Z"/><line class="cls-3" x1="10.92" y1="72.67" x2="88.92" y2="72.67"/><line class="cls-3" x1="6.42" y1="72.67" x2="8.92" y2="72.67"/><line class="cls-3" x1="90.92" y1="72.67" x2="93.42" y2="72.67"/></g></g><g id="Scene"><circle class="cls-4" cx="39.01" cy="40.69" r="9.66"/><path class="cls-5" d="M39,34.48a9.66,9.66,0,0,1,9.5,7.94,9.85,9.85,0,0,0,.16-1.73,9.66,9.66,0,0,0-19.32,0,9.85,9.85,0,0,0,.17,1.73A9.65,9.65,0,0,1,39,34.48Z"/><circle class="cls-3" cx="39.01" cy="40.69" r="9.66"/><path class="cls-1" d="M40.34,48.17a5.48,5.48,0,0,0-3.93,1.65A6.89,6.89,0,0,0,23.22,51a4.13,4.13,0,0,0,.56,8.23H40.34a5.52,5.52,0,1,0,0-11Z"/><path class="cls-2" d="M45.76,52.66a5.51,5.51,0,0,0-9.35-2.84A6.89,6.89,0,0,0,23.22,51,4.14,4.14,0,0,0,21,58.18a3.92,3.92,0,0,1,3.09-3.75c.54-3.17,3-5.57,5.87-5.57a6.07,6.07,0,0,1,5.58,4.41c.87-1,3.42-1.65,4.76-1.65a5.1,5.1,0,0,1,4.77,4.83A5.53,5.53,0,0,0,45.76,52.66Z"/><path class="cls-3" d="M40.34,48.17a5.48,5.48,0,0,0-3.93,1.65A6.89,6.89,0,0,0,23.22,51a4.13,4.13,0,0,0,.56,8.23H40.34a5.52,5.52,0,1,0,0-11Z"/><line class="cls-3" x1="39.01" y1="28.27" x2="39.01" y2="26.2"/><line class="cls-3" x1="47.8" y1="31.91" x2="49.26" y2="30.45"/><line class="cls-3" x1="51.43" y1="40.69" x2="53.5" y2="40.69"/><line class="cls-3" x1="30.23" y1="31.91" x2="28.77" y2="30.45"/><line class="cls-3" x1="26.59" y1="40.69" x2="24.52" y2="40.69"/><path class="cls-1" d="M67.77,55.31A5.41,5.41,0,0,0,67.94,54a5.52,5.52,0,0,0-5.52-5.52,5.4,5.4,0,0,0-3.32,1.14,11,11,0,0,0-19.45,7.14v.07a5.38,5.38,0,0,0-.69-.07,5.52,5.52,0,0,0,0,11H63.8a6.88,6.88,0,0,0,4-12.52Z"/><path class="cls-2" d="M68.13,66.3a6.87,6.87,0,0,0-.36-11A5.41,5.41,0,0,0,67.94,54a5.52,5.52,0,0,0-5.52-5.52,5.4,5.4,0,0,0-3.32,1.14,11,11,0,0,0-19.45,7.14v.07a5.38,5.38,0,0,0-.69-.07,5.53,5.53,0,0,0-3.14,10.07A5.49,5.49,0,0,1,41,59.55a5.38,5.38,0,0,1,.69.07v-.07c0-10,11.94-13.9,16.56-6.9,4-3.07,8.49.92,7.42,5.42a6.91,6.91,0,0,1,2.43,8.23Z"/><path class="cls-3" d="M67.77,55.31A5.41,5.41,0,0,0,67.94,54a5.52,5.52,0,0,0-5.52-5.52,5.4,5.4,0,0,0-3.32,1.14,11,11,0,0,0-19.45,7.14v.07a5.38,5.38,0,0,0-.69-.07,5.52,5.52,0,0,0,0,11H63.8a6.88,6.88,0,0,0,4-12.52Z"/><ellipse class="cls-6" cx="52.41" cy="82.78" rx="16.56" ry="1.73"/></g></svg>