<svg id="Multicolor" xmlns="http://www.w3.org/2000/svg" viewBox="0 0 100 112"><defs><style>.cls-1{fill:#e8f4fa;}.cls-2{fill:#fff;}.cls-3{fill:none;}.cls-10,.cls-3,.cls-8{stroke:#191816;stroke-linecap:round;stroke-linejoin:round;}.cls-4{fill:#525252;}.cls-5{fill:#87898c;}.cls-6,.cls-8{fill:#dea47a;}.cls-7{fill:#bf8256;}.cls-9{fill:#191816;opacity:0.15;}.cls-10{fill:#d9fdff;}</style></defs><title>06- rainy-umbrella-humid</title><g id="Background"><g id="New_Symbol_25-4" data-name="New Symbol 25"><path class="cls-1" d="M89.92,56.17a40,40,0,1,0-76.44,16.5H86.35A39.77,39.77,0,0,0,89.92,56.17Z"/><path class="cls-2" d="M13.48,72.67a40,40,0,0,0,72.87,0Z"/><line class="cls-3" x1="10.92" y1="72.67" x2="88.92" y2="72.67"/><line class="cls-3" x1="6.42" y1="72.67" x2="8.92" y2="72.67"/><line class="cls-3" x1="90.92" y1="72.67" x2="93.42" y2="72.67"/></g></g><g id="Scene"><path class="cls-4" d="M50,39.88a21,21,0,0,0-21,21,4.2,4.2,0,1,1,8.4,0,4.2,4.2,0,0,1,8.4,0,4.2,4.2,0,1,1,8.4,0,4.2,4.2,0,1,1,8.4,0,4.2,4.2,0,0,1,8.4,0A21,21,0,0,0,50,39.88Z"/><path class="cls-5" d="M50,44c8.68,0,16.1,3.36,19.07,8.11a21,21,0,0,0-38.14,0C33.86,47.32,41.28,44,50,44Z"/><path class="cls-6" d="M58.05,76.64a1.19,1.19,0,0,0-1.16.83,2.89,2.89,0,0,1-5.65-.83V56.87A4.11,4.11,0,0,0,50,56.68a4.3,4.3,0,0,0-1.2.17V76.64a5.36,5.36,0,0,0,10.46,1.62A1.24,1.24,0,0,0,58.05,76.64Z"/><path class="cls-7" d="M50,56.68a4.3,4.3,0,0,0-1.2.17v3.42h2.46v-3.4A4,4,0,0,0,50,56.68Z"/><path class="cls-3" d="M50,39.88a21,21,0,0,0-21,21,4.2,4.2,0,1,1,8.4,0,4.2,4.2,0,0,1,8.4,0,4.2,4.2,0,1,1,8.4,0,4.2,4.2,0,1,1,8.4,0,4.2,4.2,0,0,1,8.4,0A21,21,0,0,0,50,39.88Z"/><path class="cls-3" d="M51.24,56.87A4.11,4.11,0,0,0,50,56.68a4.3,4.3,0,0,0-1.2.17V76.64a5.35,5.35,0,0,0,10.46,1.62,1.24,1.24,0,0,0-1.18-1.62,1.2,1.2,0,0,0-1.16.83,2.89,2.89,0,0,1-5.65-.83Z"/><path class="cls-8" d="M50,39.88l1.2,0V36.28a1.2,1.2,0,0,0-2.4,0v3.63Q49.35,39.88,50,39.88Z"/><ellipse class="cls-9" cx="49.82" cy="86.17" rx="14.4" ry="1.5"/><path class="cls-10" d="M68.44,21.92h0a2.3,2.3,0,0,1-3.24,0h0a2.29,2.29,0,0,1-.49-2.5l2.11-5.08,2.12,5.08A2.3,2.3,0,0,1,68.44,21.92Z"/><path class="cls-10" d="M51.7,21.92h0a2.3,2.3,0,0,1-3.24,0h0a2.29,2.29,0,0,1-.49-2.5l2.11-5.08,2.11,5.08A2.29,2.29,0,0,1,51.7,21.92Z"/><path class="cls-10" d="M35,21.92h0a2.3,2.3,0,0,1-3.24,0h0a2.28,2.28,0,0,1-.49-2.5l2.11-5.08,2.11,5.08A2.29,2.29,0,0,1,35,21.92Z"/><path class="cls-10" d="M77,31h0a2.3,2.3,0,0,1-3.24,0h0a2.29,2.29,0,0,1-.49-2.5l2.11-5.08,2.11,5.08A2.28,2.28,0,0,1,77,31Z"/><path class="cls-10" d="M60.24,31h0A2.3,2.3,0,0,1,57,31h0a2.29,2.29,0,0,1-.49-2.5l2.11-5.08,2.11,5.08A2.29,2.29,0,0,1,60.24,31Z"/><path class="cls-10" d="M43.5,31h0a2.3,2.3,0,0,1-3.24,0h0a2.3,2.3,0,0,1-.5-2.5l2.12-5.08L44,28.53A2.29,2.29,0,0,1,43.5,31Z"/><path class="cls-10" d="M26.9,31h0a2.3,2.3,0,0,1-3.24,0h0a2.28,2.28,0,0,1-.49-2.5l2.11-5.08,2.11,5.08A2.29,2.29,0,0,1,26.9,31Z"/></g></svg>